<?xml version="1.0" standalone="no"?>
<!DOCTYPE svg PUBLIC "-//W3C//DTD SVG 20010904//EN"
 "http://www.w3.org/TR/2001/REC-SVG-20010904/DTD/svg10.dtd">
<svg version="1.0" xmlns="http://www.w3.org/2000/svg"
 width="324.000000pt" height="324.000000pt" viewBox="0 0 324.000000 324.000000"
 preserveAspectRatio="xMidYMid meet">
<metadata>
Created by potrace 1.14, written by Peter Selinger 2001-2017
</metadata>
<g transform="translate(0.000000,324.000000) scale(0.100000,-0.100000)"
fill="#000000" stroke="none">
<path d="M1625 2838 c-32 -18 -35 -28 -35 -144 0 -161 6 -197 39 -213 45 -22
48 -22 62 -9 40 37 140 60 294 65 228 9 386 -32 590 -152 22 -13 44 -21 49
-17 5 3 6 0 2 -6 -11 -17 25 -72 51 -78 13 -4 35 -3 50 1 27 6 27 7 9 21 -11
8 -30 14 -43 14 -13 0 -23 4 -23 9 0 5 -8 12 -17 14 -20 5 30 -2 65 -9 35 -7
38 21 6 69 -77 118 -221 206 -389 240 -71 14 -345 20 -370 8 -11 -5 -36 -12
-56 -14 -48 -7 -159 -61 -201 -97 l-33 -29 -3 97 c-2 60 1 98 8 100 5 2 10 10
10 17 0 7 7 15 15 19 16 6 20 53 7 72 -8 12 -46 34 -59 34 -4 0 -17 -6 -28
-12z"/>
<path d="M980 2737 c-3 -3 -48 -11 -100 -17 -142 -16 -229 -36 -300 -68 -74
-33 -57 -50 64 -63 183 -21 202 -25 182 -34 -10 -4 -30 -8 -45 -8 -43 1 -183
23 -200 32 -28 15 -99 23 -105 12 -4 -5 -2 -12 4 -16 5 -3 10 -14 10 -24 0
-24 94 -119 125 -127 14 -3 25 -10 25 -15 0 -4 16 -11 36 -15 28 -5 48 0 97
23 34 17 78 36 97 43 19 6 44 16 55 20 21 8 135 32 250 51 76 12 243 7 334
-10 30 -6 57 -8 60 -6 11 11 -127 125 -152 125 -8 0 -17 4 -19 8 -4 11 -100
51 -162 68 -54 15 -247 30 -256 21z"/>
<path d="M1978 2010 c-2 -8 2 -43 9 -79 25 -120 35 -254 30 -406 -5 -145 -23
-295 -37 -305 -4 -3 -15 -23 -24 -45 -44 -101 -43 -101 -91 -103 -25 -1 -45 2
-45 7 0 5 -11 12 -24 15 -14 3 -26 16 -30 31 -4 14 -11 25 -16 25 -6 0 -10 9
-10 21 0 15 -5 19 -15 15 -9 -3 -18 1 -21 9 -4 8 -12 15 -20 15 -8 0 -14 7
-14 15 0 8 -4 15 -10 15 -5 0 -10 6 -10 14 0 15 -57 39 -71 30 -5 -3 -9 2 -9
10 0 10 -9 16 -21 16 -22 0 -49 22 -49 39 0 6 -5 11 -11 11 -6 0 -8 7 -5 16 5
13 2 15 -14 11 -17 -4 -20 0 -20 24 0 22 -6 30 -25 35 -15 4 -25 13 -25 24 0
10 -7 20 -15 24 -8 3 -15 12 -15 21 0 8 -4 15 -8 15 -5 0 -22 11 -38 25 -16
14 -32 25 -35 25 -6 0 -18 28 -23 52 0 3 -4 10 -9 14 -4 4 -7 17 -7 29 0 15
-10 25 -36 34 -32 12 -35 15 -30 44 3 18 3 24 -2 15 -5 -12 -12 -14 -21 -9 -7
5 -11 13 -7 19 3 6 -1 8 -12 5 -16 -4 -18 0 -14 29 4 27 2 31 -9 21 -7 -7 -20
-13 -29 -13 -12 0 -13 2 -1 9 9 6 11 16 6 27 -4 11 -9 14 -12 8 -2 -6 -15 -9
-28 -6 -21 4 -25 10 -25 38 0 19 4 34 9 34 5 0 7 10 3 22 l-5 22 -8 -22 c-8
-22 -49 -32 -49 -12 0 6 -11 10 -25 10 -16 0 -25 6 -25 16 0 23 -24 11 -28
-14 -2 -12 -4 -22 -5 -22 -1 0 -17 4 -35 9 -31 9 -33 9 -27 -12 4 -14 3 -18
-3 -9 -5 7 -15 11 -23 9 -8 -2 -10 -2 -5 1 5 3 -2 10 -15 17 -20 11 -25 10
-36 -4 -12 -15 -14 -14 -28 3 -12 16 -15 17 -15 4 0 -9 -5 -18 -12 -20 -7 -3
-12 -21 -11 -42 1 -26 -4 -40 -18 -49 -10 -6 -19 -20 -19 -30 0 -10 -8 -21
-17 -24 -29 -11 -45 -31 -30 -36 9 -3 9 -8 -2 -20 -12 -15 -11 -17 3 -17 14 0
16 -6 10 -37 -4 -21 -11 -41 -17 -44 -5 -4 -6 -12 -2 -19 5 -8 4 -11 -2 -7 -6
4 -13 -2 -16 -14 -3 -11 0 -22 7 -25 8 -3 11 -15 8 -30 -2 -14 0 -24 7 -24 6
0 11 -4 11 -10 0 -5 -8 -10 -19 -10 -22 0 -29 -34 -27 -132 2 -56 6 -72 26
-93 23 -25 21 -29 -12 -26 -27 3 -22 -17 12 -51 21 -21 29 -36 25 -49 -4 -12
-2 -19 7 -19 13 0 18 -18 18 -70 0 -33 27 -88 51 -103 10 -6 19 -20 19 -29 0
-10 11 -25 25 -34 14 -9 25 -25 25 -35 0 -11 7 -19 15 -19 8 0 15 -6 15 -14 0
-13 114 -135 155 -166 23 -17 127 -102 135 -110 7 -7 43 -29 60 -37 8 -4 17
-9 20 -12 5 -6 38 -25 85 -50 16 -9 32 -18 35 -21 5 -6 65 -34 153 -73 21 -9
48 -17 62 -17 13 0 25 -6 27 -12 7 -20 192 -16 253 5 130 46 416 211 433 249
2 5 10 8 17 8 7 0 15 4 17 8 2 4 20 21 42 37 78 59 210 185 263 250 38 47 76
123 93 185 6 25 15 52 20 60 4 9 11 35 15 58 4 23 11 42 16 42 14 0 11 38 -3
43 -10 3 -10 9 0 27 9 15 13 50 11 109 -3 89 -14 117 -36 99 -9 -7 -13 -7 -13
1 0 7 -5 9 -10 6 -6 -4 -8 -15 -5 -25 3 -10 0 -20 -8 -23 -8 -3 -17 -19 -20
-37 -4 -17 -23 -46 -42 -64 -19 -18 -35 -39 -35 -45 0 -18 -23 -38 -38 -33 -6
2 -12 -1 -12 -7 0 -6 7 -11 15 -11 23 0 18 -15 -10 -30 -14 -7 -25 -19 -25
-27 0 -7 -7 -13 -15 -13 -8 0 -15 -5 -15 -11 0 -6 -7 -9 -15 -6 -8 4 -17 2
-20 -3 -3 -5 -12 -7 -20 -3 -10 3 -15 -1 -15 -13 -1 -18 -1 -18 -15 0 -15 19
-15 19 -15 -2 0 -24 -27 -30 -59 -12 -13 6 -24 5 -37 -5 -18 -14 -18 -14 4
-15 16 0 22 -6 22 -22 -1 -21 -2 -21 -11 -5 -6 10 -22 17 -39 17 -32 0 -37 9
-18 28 9 9 9 18 0 37 -7 14 -12 42 -12 62 0 50 -21 114 -46 142 -19 20 -22 39
-28 140 -9 168 -20 247 -49 326 -56 155 -71 187 -79 165z m-1310 -242 c-6 -18
-28 -21 -28 -4 0 9 7 16 16 16 9 0 14 -5 12 -12z"/>
<path d="M887 1993 c-12 -12 -7 -22 8 -17 8 4 15 10 15 15 0 11 -14 12 -23 2z"/>
<path d="M1040 1890 c0 -5 9 -10 20 -10 11 0 20 5 20 10 0 6 -9 10 -20 10 -11
0 -20 -4 -20 -10z"/>
<path d="M2430 1229 c0 -5 5 -7 10 -4 6 3 10 8 10 11 0 2 -4 4 -10 4 -5 0 -10
-5 -10 -11z"/>
</g>
</svg>
